<svg xmlns="http://www.w3.org/2000/svg" width="860" height="796" viewBox="0 0 860 796">
<rect width="860" height="796" fill="#0a0d12"/>

    <style>
      text { font-family: 'JetBrains Mono', 'Courier New', monospace; }
    </style>
    
<rect x="0" y="0" width="860" height="54" rx="0" fill="#111620"/>
<line x1="28" y1="1" x2="832" y2="1" stroke="#1A6FC4" stroke-width="1" opacity="0.45"/>
<text x="36" y="20" font-family="monospace" font-size="15" font-weight="700" fill="#c8d0e0" letter-spacing="0.5">Trivian Technologies</text>
<text x="36" y="38" font-family="monospace" font-size="10" fill="#5a6478" letter-spacing="0.8">AI Governance Infrastructure · Built for Production</text>
<text x="824" y="20" font-family="monospace" font-size="9" fill="#5a6478" text-anchor="end">Updated 2026-05-03 03:57 UTC</text>
<text x="824" y="38" font-family="monospace" font-size="9" fill="#1A6FC4" text-anchor="end">Sprint · March 2026</text>
<rect x="28" y="70" width="192" height="52" rx="8" fill="#111620" stroke="#1e2533" stroke-width="0.8"/>
<text x="124" y="92" font-family="monospace" font-size="22" font-weight="700" fill="#c8d0e0" text-anchor="middle">82%</text>
<text x="124" y="110" font-family="monospace" font-size="9" fill="#5a6478" text-anchor="middle" letter-spacing="0.8">Overall</text>
<rect x="232" y="70" width="192" height="52" rx="8" fill="#111620" stroke="#1e2533" stroke-width="0.8"/>
<text x="328" y="92" font-family="monospace" font-size="22" font-weight="700" fill="#00d4aa" text-anchor="middle">3</text>
<text x="328" y="110" font-family="monospace" font-size="9" fill="#5a6478" text-anchor="middle" letter-spacing="0.8">Active Repos</text>
<rect x="436" y="70" width="192" height="52" rx="8" fill="#111620" stroke="#1e2533" stroke-width="0.8"/>
<text x="532" y="92" font-family="monospace" font-size="22" font-weight="700" fill="#f0a500" text-anchor="middle">4</text>
<text x="532" y="110" font-family="monospace" font-size="9" fill="#5a6478" text-anchor="middle" letter-spacing="0.8">Blockers</text>
<rect x="640" y="70" width="192" height="52" rx="8" fill="#111620" stroke="#1e2533" stroke-width="0.8"/>
<text x="736" y="92" font-family="monospace" font-size="22" font-weight="700" fill="#1A6FC4" text-anchor="middle">6</text>
<text x="736" y="110" font-family="monospace" font-size="9" fill="#5a6478" text-anchor="middle" letter-spacing="0.8">Repos Total</text>
<rect x="28" y="138" width="804" height="126" rx="8" fill="#111620" stroke="#1e2533" stroke-width="0.8"/>
<text x="42" y="154" font-family="monospace" font-size="9" fill="#5a6478" letter-spacing="1" text-transform="uppercase">Commit activity · last 52 weeks</text>
<line x1="29" y1="164" x2="831" y2="164"
        stroke="#1A6FC4" stroke-width="0.8" opacity="0.3">
      <animate attributeName="y1" from="164" to="262"
               dur="8s" repeatCount="indefinite"/>
      <animate attributeName="y2" from="164" to="262"
               dur="8s" repeatCount="indefinite"/>
    </line>
<rect x="119" y="164" width="10" height="10" rx="2" fill="#1e2533"/>
<rect x="119" y="176" width="10" height="10" rx="2" fill="#1e2533"/>
<rect x="119" y="188" width="10" height="10" rx="2" fill="#1e2533"/>
<rect x="119" y="200" width="10" height="10" rx="2" fill="#1e2533"/>
<rect x="119" y="212" width="10" height="10" rx="2" fill="#1e2533"/>
<rect x="119" y="224" width="10" height="10" rx="2" fill="#1a2d4a"/>
<rect x="119" y="236" width="10" height="10" rx="2" fill="#1a4880"/>
<rect x="131" y="164" width="10" height="10" rx="2" fill="#1e2533"/>
<rect x="131" y="176" width="10" height="10" rx="2" fill="#1e2533"/>
<rect x="131" y="188" width="10" height="10" rx="2" fill="#1e2533"/>
<rect x="131" y="200" width="10" height="10" rx="2" fill="#1e2533"/>
<rect x="131" y="212" width="10" height="10" rx="2" fill="#1a2d4a"/>
<rect x="131" y="224" width="10" height="10" rx="2" fill="#1a4880"/>
<rect x="131" y="236" width="10" height="10" rx="2" fill="#1A6FC4"/>
<rect x="143" y="164" width="10" height="10" rx="2" fill="#1e2533"/>
<rect x="143" y="176" width="10" height="10" rx="2" fill="#1e2533"/>
<rect x="143" y="188" width="10" height="10" rx="2" fill="#1e2533"/>
<rect x="143" y="200" width="10" height="10" rx="2" fill="#1a2d4a"/>
<rect x="143" y="212" width="10" height="10" rx="2" fill="#1a4880"/>
<rect x="143" y="224" width="10" height="10" rx="2" fill="#1A6FC4"/>
<rect x="143" y="236" width="10" height="10" rx="2" fill="#1e2533"/>
<rect x="155" y="164" width="10" height="10" rx="2" fill="#1e2533"/>
<rect x="155" y="176" width="10" height="10" rx="2" fill="#1e2533"/>
<rect x="155" y="188" width="10" height="10" rx="2" fill="#1e2533"/>
<rect x="155" y="200" width="10" height="10" rx="2" fill="#1a2d4a"/>
<rect x="155" y="212" width="10" height="10" rx="2" fill="#1A6FC4"/>
<rect x="155" y="224" width="10" height="10" rx="2" fill="#1e2533"/>
<rect x="155" y="236" width="10" height="10" rx="2" fill="#1e2533"/>
<rect x="167" y="164" width="10" height="10" rx="2" fill="#1e2533"/>
<rect x="167" y="176" width="10" height="10" rx="2" fill="#1e2533"/>
<rect x="167" y="188" width="10" height="10" rx="2" fill="#1a2d4a"/>
<rect x="167" y="200" width="10" height="10" rx="2" fill="#1a4880"/>
<rect x="167" y="212" width="10" height="10" rx="2" fill="#00d4aa"/>
<rect x="167" y="224" width="10" height="10" rx="2" fill="#1e2533"/>
<rect x="167" y="236" width="10" height="10" rx="2" fill="#1e2533"/>
<rect x="179" y="164" width="10" height="10" rx="2" fill="#1e2533"/>
<rect x="179" y="176" width="10" height="10" rx="2" fill="#1e2533"/>
<rect x="179" y="188" width="10" height="10" rx="2" fill="#1a2d4a"/>
<rect x="179" y="200" width="10" height="10" rx="2" fill="#1A6FC4"/>
<rect x="179" y="212" width="10" height="10" rx="2" fill="#1e2533"/>
<rect x="179" y="224" width="10" height="10" rx="2" fill="#1e2533"/>
<rect x="179" y="236" width="10" height="10" rx="2" fill="#1e2533"/>
<rect x="191" y="164" width="10" height="10" rx="2" fill="#1e2533"/>
<rect x="191" y="176" width="10" height="10" rx="2" fill="#1a2d4a"/>
<rect x="191" y="188" width="10" height="10" rx="2" fill="#1a4880"/>
<rect x="191" y="200" width="10" height="10" rx="2" fill="#00d4aa"/>
<rect x="191" y="212" width="10" height="10" rx="2" fill="#1e2533"/>
<rect x="191" y="224" width="10" height="10" rx="2" fill="#1e2533"/>
<rect x="191" y="236" width="10" height="10" rx="2" fill="#1a2d4a"/>
<rect x="203" y="164" width="10" height="10" rx="2" fill="#1e2533"/>
<rect x="203" y="176" width="10" height="10" rx="2" fill="#1a2d4a"/>
<rect x="203" y="188" width="10" height="10" rx="2" fill="#1A6FC4"/>
<rect x="203" y="200" width="10" height="10" rx="2" fill="#1e2533"/>
<rect x="203" y="212" width="10" height="10" rx="2" fill="#1e2533"/>
<rect x="203" y="224" width="10" height="10" rx="2" fill="#1e2533"/>
<rect x="203" y="236" width="10" height="10" rx="2" fill="#1a2d4a"/>
<rect x="215" y="164" width="10" height="10" rx="2" fill="#1a2d4a"/>
<rect x="215" y="176" width="10" height="10" rx="2" fill="#1a4880"/>
<rect x="215" y="188" width="10" height="10" rx="2" fill="#00d4aa"/>
<rect x="215" y="200" width="10" height="10" rx="2" fill="#1e2533"/>
<rect x="215" y="212" width="10" height="10" rx="2" fill="#1e2533"/>
<rect x="215" y="224" width="10" height="10" rx="2" fill="#1a2d4a"/>
<rect x="215" y="236" width="10" height="10" rx="2" fill="#1a4880"/>
<rect x="227" y="164" width="10" height="10" rx="2" fill="#1a2d4a"/>
<rect x="227" y="176" width="10" height="10" rx="2" fill="#1A6FC4"/>
<rect x="227" y="188" width="10" height="10" rx="2" fill="#1e2533"/>
<rect x="227" y="200" width="10" height="10" rx="2" fill="#1e2533"/>
<rect x="227" y="212" width="10" height="10" rx="2" fill="#1e2533"/>
<rect x="227" y="224" width="10" height="10" rx="2" fill="#1a4880"/>
<rect x="227" y="236" width="10" height="10" rx="2" fill="#00d4aa"/>
<rect x="239" y="164" width="10" height="10" rx="2" fill="#1a2d4a"/>
<rect x="239" y="176" width="10" height="10" rx="2" fill="#1A6FC4"/>
<rect x="239" y="188" width="10" height="10" rx="2" fill="#1e2533"/>
<rect x="239" y="200" width="10" height="10" rx="2" fill="#1e2533"/>
<rect x="239" y="212" width="10" height="10" rx="2" fill="#1a2d4a"/>
<rect x="239" y="224" width="10" height="10" rx="2" fill="#1A6FC4"/>
<rect x="239" y="236" width="10" height="10" rx="2" fill="#1e2533"/>
<rect x="251" y="164" width="10" height="10" rx="2" fill="#1a4880"/>
<rect x="251" y="176" width="10" height="10" rx="2" fill="#1e2533"/>
<rect x="251" y="188" width="10" height="10" rx="2" fill="#1e2533"/>
<rect x="251" y="200" width="10" height="10" rx="2" fill="#1e2533"/>
<rect x="251" y="212" width="10" height="10" rx="2" fill="#1a4880"/>
<rect x="251" y="224" width="10" height="10" rx="2" fill="#00d4aa"/>
<rect x="251" y="236" width="10" height="10" rx="2" fill="#1e2533"/>
<rect x="263" y="164" width="10" height="10" rx="2" fill="#1a4880"/>
<rect x="263" y="176" width="10" height="10" rx="2" fill="#1e2533"/>
<rect x="263" y="188" width="10" height="10" rx="2" fill="#1e2533"/>
<rect x="263" y="200" width="10" height="10" rx="2" fill="#1a2d4a"/>
<rect x="263" y="212" width="10" height="10" rx="2" fill="#1a4880"/>
<rect x="263" y="224" width="10" height="10" rx="2" fill="#1e2533"/>
<rect x="263" y="236" width="10" height="10" rx="2" fill="#1e2533"/>
<rect x="275" y="164" width="10" height="10" rx="2" fill="#1A6FC4"/>
<rect x="275" y="176" width="10" height="10" rx="2" fill="#1e2533"/>
<rect x="275" y="188" width="10" height="10" rx="2" fill="#1e2533"/>
<rect x="275" y="200" width="10" height="10" rx="2" fill="#1a2d4a"/>
<rect x="275" y="212" width="10" height="10" rx="2" fill="#00d4aa"/>
<rect x="275" y="224" width="10" height="10" rx="2" fill="#1e2533"/>
<rect x="275" y="236" width="10" height="10" rx="2" fill="#1e2533"/>
<rect x="287" y="164" width="10" height="10" rx="2" fill="#00d4aa"/>
<rect x="287" y="176" width="10" height="10" rx="2" fill="#1e2533"/>
<rect x="287" y="188" width="10" height="10" rx="2" fill="#1e2533"/>
<rect x="287" y="200" width="10" height="10" rx="2" fill="#1a4880"/>
<rect x="287" y="212" width="10" height="10" rx="2" fill="#1e2533"/>
<rect x="287" y="224" width="10" height="10" rx="2" fill="#1e2533"/>
<rect x="287" y="236" width="10" height="10" rx="2" fill="#1a2d4a"/>
<rect x="299" y="164" width="10" height="10" rx="2" fill="#1e2533"/>
<rect x="299" y="176" width="10" height="10" rx="2" fill="#1e2533"/>
<rect x="299" y="188" width="10" height="10" rx="2" fill="#1a2d4a"/>
<rect x="299" y="200" width="10" height="10" rx="2" fill="#1A6FC4"/>
<rect x="299" y="212" width="10" height="10" rx="2" fill="#1e2533"/>
<rect x="299" y="224" width="10" height="10" rx="2" fill="#1e2533"/>
<rect x="299" y="236" width="10" height="10" rx="2" fill="#1a4880"/>
<rect x="311" y="164" width="10" height="10" rx="2" fill="#1e2533"/>
<rect x="311" y="176" width="10" height="10" rx="2" fill="#1e2533"/>
<rect x="311" y="188" width="10" height="10" rx="2" fill="#1a2d4a"/>
<rect x="311" y="200" width="10" height="10" rx="2" fill="#00d4aa"/>
<rect x="311" y="212" width="10" height="10" rx="2" fill="#1e2533"/>
<rect x="311" y="224" width="10" height="10" rx="2" fill="#1a2d4a"/>
<rect x="311" y="236" width="10" height="10" rx="2" fill="#1A6FC4"/>
<rect x="323" y="164" width="10" height="10" rx="2" fill="#1e2533"/>
<rect x="323" y="176" width="10" height="10" rx="2" fill="#1e2533"/>
<rect x="323" y="188" width="10" height="10" rx="2" fill="#1a4880"/>
<rect x="323" y="200" width="10" height="10" rx="2" fill="#1e2533"/>
<rect x="323" y="212" width="10" height="10" rx="2" fill="#1e2533"/>
<rect x="323" y="224" width="10" height="10" rx="2" fill="#1a2d4a"/>
<rect x="323" y="236" width="10" height="10" rx="2" fill="#00d4aa"/>
<rect x="335" y="164" width="10" height="10" rx="2" fill="#1e2533"/>
<rect x="335" y="176" width="10" height="10" rx="2" fill="#1a2d4a"/>
<rect x="335" y="188" width="10" height="10" rx="2" fill="#1A6FC4"/>
<rect x="335" y="200" width="10" height="10" rx="2" fill="#1e2533"/>
<rect x="335" y="212" width="10" height="10" rx="2" fill="#1e2533"/>
<rect x="335" y="224" width="10" height="10" rx="2" fill="#1a4880"/>
<rect x="335" y="236" width="10" height="10" rx="2" fill="#1e2533"/>
<rect x="347" y="164" width="10" height="10" rx="2" fill="#1e2533"/>
<rect x="347" y="176" width="10" height="10" rx="2" fill="#1a2d4a"/>
<rect x="347" y="188" width="10" height="10" rx="2" fill="#00d4aa"/>
<rect x="347" y="200" width="10" height="10" rx="2" fill="#1e2533"/>
<rect x="347" y="212" width="10" height="10" rx="2" fill="#1a2d4a"/>
<rect x="347" y="224" width="10" height="10" rx="2" fill="#1A6FC4"/>
<rect x="347" y="236" width="10" height="10" rx="2" fill="#1e2533"/>
<rect x="359" y="164" width="10" height="10" rx="2" fill="#1e2533"/>
<rect x="359" y="176" width="10" height="10" rx="2" fill="#1a4880"/>
<rect x="359" y="188" width="10" height="10" rx="2" fill="#1e2533"/>
<rect x="359" y="200" width="10" height="10" rx="2" fill="#1e2533"/>
<rect x="359" y="212" width="10" height="10" rx="2" fill="#1a4880"/>
<rect x="359" y="224" width="10" height="10" rx="2" fill="#1e2533"/>
<rect x="359" y="236" width="10" height="10" rx="2" fill="#1e2533"/>
<rect x="371" y="164" width="10" height="10" rx="2" fill="#1e2533"/>
<rect x="371" y="176" width="10" height="10" rx="2" fill="#1a4880"/>
<rect x="371" y="188" width="10" height="10" rx="2" fill="#1e2533"/>
<rect x="371" y="200" width="10" height="10" rx="2" fill="#1e2533"/>
<rect x="371" y="212" width="10" height="10" rx="2" fill="#1a4880"/>
<rect x="371" y="224" width="10" height="10" rx="2" fill="#1e2533"/>
<rect x="371" y="236" width="10" height="10" rx="2" fill="#1e2533"/>
<rect x="383" y="164" width="10" height="10" rx="2" fill="#1e2533"/>
<rect x="383" y="176" width="10" height="10" rx="2" fill="#1A6FC4"/>
<rect x="383" y="188" width="10" height="10" rx="2" fill="#1e2533"/>
<rect x="383" y="200" width="10" height="10" rx="2" fill="#1a2d4a"/>
<rect x="383" y="212" width="10" height="10" rx="2" fill="#00d4aa"/>
<rect x="383" y="224" width="10" height="10" rx="2" fill="#1e2533"/>
<rect x="383" y="236" width="10" height="10" rx="2" fill="#1a2d4a"/>
<rect x="395" y="164" width="10" height="10" rx="2" fill="#1a2d4a"/>
<rect x="395" y="176" width="10" height="10" rx="2" fill="#00d4aa"/>
<rect x="395" y="188" width="10" height="10" rx="2" fill="#1e2533"/>
<rect x="395" y="200" width="10" height="10" rx="2" fill="#1a2d4a"/>
<rect x="395" y="212" width="10" height="10" rx="2" fill="#1e2533"/>
<rect x="395" y="224" width="10" height="10" rx="2" fill="#1e2533"/>
<rect x="395" y="236" width="10" height="10" rx="2" fill="#1a4880"/>
<rect x="407" y="164" width="10" height="10" rx="2" fill="#1a2d4a"/>
<rect x="407" y="176" width="10" height="10" rx="2" fill="#1e2533"/>
<rect x="407" y="188" width="10" height="10" rx="2" fill="#1e2533"/>
<rect x="407" y="200" width="10" height="10" rx="2" fill="#1a4880"/>
<rect x="407" y="212" width="10" height="10" rx="2" fill="#1e2533"/>
<rect x="407" y="224" width="10" height="10" rx="2" fill="#1e2533"/>
<rect x="407" y="236" width="10" height="10" rx="2" fill="#1A6FC4"/>
<rect x="419" y="164" width="10" height="10" rx="2" fill="#1a4880"/>
<rect x="419" y="176" width="10" height="10" rx="2" fill="#1e2533"/>
<rect x="419" y="188" width="10" height="10" rx="2" fill="#1e2533"/>
<rect x="419" y="200" width="10" height="10" rx="2" fill="#1A6FC4"/>
<rect x="419" y="212" width="10" height="10" rx="2" fill="#1e2533"/>
<rect x="419" y="224" width="10" height="10" rx="2" fill="#1a2d4a"/>
<rect x="419" y="236" width="10" height="10" rx="2" fill="#1e2533"/>
<rect x="431" y="164" width="10" height="10" rx="2" fill="#1a4880"/>
<rect x="431" y="176" width="10" height="10" rx="2" fill="#1e2533"/>
<rect x="431" y="188" width="10" height="10" rx="2" fill="#1a2d4a"/>
<rect x="431" y="200" width="10" height="10" rx="2" fill="#00d4aa"/>
<rect x="431" y="212" width="10" height="10" rx="2" fill="#1e2533"/>
<rect x="431" y="224" width="10" height="10" rx="2" fill="#1a4880"/>
<rect x="431" y="236" width="10" height="10" rx="2" fill="#1e2533"/>
<rect x="443" y="164" width="10" height="10" rx="2" fill="#1A6FC4"/>
<rect x="443" y="176" width="10" height="10" rx="2" fill="#1e2533"/>
<rect x="443" y="188" width="10" height="10" rx="2" fill="#1a2d4a"/>
<rect x="443" y="200" width="10" height="10" rx="2" fill="#1e2533"/>
<rect x="443" y="212" width="10" height="10" rx="2" fill="#1e2533"/>
<rect x="443" y="224" width="10" height="10" rx="2" fill="#1A6FC4"/>
<rect x="443" y="236" width="10" height="10" rx="2" fill="#1e2533"/>
<rect x="455" y="164" width="10" height="10" rx="2" fill="#00d4aa"/>
<rect x="455" y="176" width="10" height="10" rx="2" fill="#1e2533"/>
<rect x="455" y="188" width="10" height="10" rx="2" fill="#1a4880"/>
<rect x="455" y="200" width="10" height="10" rx="2" fill="#1e2533"/>
<rect x="455" y="212" width="10" height="10" rx="2" fill="#1a2d4a"/>
<rect x="455" y="224" width="10" height="10" rx="2" fill="#1e2533"/>
<rect x="455" y="236" width="10" height="10" rx="2" fill="#1e2533"/>
<rect x="467" y="164" width="10" height="10" rx="2" fill="#1e2533"/>
<rect x="467" y="176" width="10" height="10" rx="2" fill="#1e2533"/>
<rect x="467" y="188" width="10" height="10" rx="2" fill="#1A6FC4"/>
<rect x="467" y="200" width="10" height="10" rx="2" fill="#1e2533"/>
<rect x="467" y="212" width="10" height="10" rx="2" fill="#1a2d4a"/>
<rect x="467" y="224" width="10" height="10" rx="2" fill="#1e2533"/>
<rect x="467" y="236" width="10" height="10" rx="2" fill="#1a2d4a"/>
<rect x="479" y="164" width="10" height="10" rx="2" fill="#1e2533"/>
<rect x="479" y="176" width="10" height="10" rx="2" fill="#1e2533"/>
<rect x="479" y="188" width="10" height="10" rx="2" fill="#00d4aa"/>
<rect x="479" y="200" width="10" height="10" rx="2" fill="#1e2533"/>
<rect x="479" y="212" width="10" height="10" rx="2" fill="#1a4880"/>
<rect x="479" y="224" width="10" height="10" rx="2" fill="#1e2533"/>
<rect x="479" y="236" width="10" height="10" rx="2" fill="#1a2d4a"/>
<rect x="491" y="164" width="10" height="10" rx="2" fill="#1e2533"/>
<rect x="491" y="176" width="10" height="10" rx="2" fill="#1a2d4a"/>
<rect x="491" y="188" width="10" height="10" rx="2" fill="#1e2533"/>
<rect x="491" y="200" width="10" height="10" rx="2" fill="#1e2533"/>
<rect x="491" y="212" width="10" height="10" rx="2" fill="#1A6FC4"/>
<rect x="491" y="224" width="10" height="10" rx="2" fill="#1e2533"/>
<rect x="491" y="236" width="10" height="10" rx="2" fill="#1a4880"/>
<rect x="503" y="164" width="10" height="10" rx="2" fill="#1e2533"/>
<rect x="503" y="176" width="10" height="10" rx="2" fill="#1a2d4a"/>
<rect x="503" y="188" width="10" height="10" rx="2" fill="#1e2533"/>
<rect x="503" y="200" width="10" height="10" rx="2" fill="#1a2d4a"/>
<rect x="503" y="212" width="10" height="10" rx="2" fill="#1e2533"/>
<rect x="503" y="224" width="10" height="10" rx="2" fill="#1e2533"/>
<rect x="503" y="236" width="10" height="10" rx="2" fill="#00d4aa"/>
<rect x="515" y="164" width="10" height="10" rx="2" fill="#1e2533"/>
<rect x="515" y="176" width="10" height="10" rx="2" fill="#1a4880"/>
<rect x="515" y="188" width="10" height="10" rx="2" fill="#1e2533"/>
<rect x="515" y="200" width="10" height="10" rx="2" fill="#1a2d4a"/>
<rect x="515" y="212" width="10" height="10" rx="2" fill="#1e2533"/>
<rect x="515" y="224" width="10" height="10" rx="2" fill="#1a2d4a"/>
<rect x="515" y="236" width="10" height="10" rx="2" fill="#1e2533"/>
<rect x="527" y="164" width="10" height="10" rx="2" fill="#1e2533"/>
<rect x="527" y="176" width="10" height="10" rx="2" fill="#1A6FC4"/>
<rect x="527" y="188" width="10" height="10" rx="2" fill="#1e2533"/>
<rect x="527" y="200" width="10" height="10" rx="2" fill="#1a4880"/>
<rect x="527" y="212" width="10" height="10" rx="2" fill="#1e2533"/>
<rect x="527" y="224" width="10" height="10" rx="2" fill="#1a4880"/>
<rect x="527" y="236" width="10" height="10" rx="2" fill="#1e2533"/>
<rect x="539" y="164" width="10" height="10" rx="2" fill="#1e2533"/>
<rect x="539" y="176" width="10" height="10" rx="2" fill="#1A6FC4"/>
<rect x="539" y="188" width="10" height="10" rx="2" fill="#1e2533"/>
<rect x="539" y="200" width="10" height="10" rx="2" fill="#1A6FC4"/>
<rect x="539" y="212" width="10" height="10" rx="2" fill="#1e2533"/>
<rect x="539" y="224" width="10" height="10" rx="2" fill="#1A6FC4"/>
<rect x="539" y="236" width="10" height="10" rx="2" fill="#1e2533"/>
<rect x="551" y="164" width="10" height="10" rx="2" fill="#1a2d4a"/>
<rect x="551" y="176" width="10" height="10" rx="2" fill="#1e2533"/>
<rect x="551" y="188" width="10" height="10" rx="2" fill="#1a2d4a"/>
<rect x="551" y="200" width="10" height="10" rx="2" fill="#00d4aa"/>
<rect x="551" y="212" width="10" height="10" rx="2" fill="#1a2d4a"/>
<rect x="551" y="224" width="10" height="10" rx="2" fill="#00d4aa"/>
<rect x="551" y="236" width="10" height="10" rx="2" fill="#1a2d4a"/>
<rect x="563" y="164" width="10" height="10" rx="2" fill="#1a2d4a"/>
<rect x="563" y="176" width="10" height="10" rx="2" fill="#1e2533"/>
<rect x="563" y="188" width="10" height="10" rx="2" fill="#1a2d4a"/>
<rect x="563" y="200" width="10" height="10" rx="2" fill="#1e2533"/>
<rect x="563" y="212" width="10" height="10" rx="2" fill="#1a2d4a"/>
<rect x="563" y="224" width="10" height="10" rx="2" fill="#1e2533"/>
<rect x="563" y="236" width="10" height="10" rx="2" fill="#1a2d4a"/>
<rect x="575" y="164" width="10" height="10" rx="2" fill="#1a4880"/>
<rect x="575" y="176" width="10" height="10" rx="2" fill="#1e2533"/>
<rect x="575" y="188" width="10" height="10" rx="2" fill="#1a4880"/>
<rect x="575" y="200" width="10" height="10" rx="2" fill="#1e2533"/>
<rect x="575" y="212" width="10" height="10" rx="2" fill="#1a4880"/>
<rect x="575" y="224" width="10" height="10" rx="2" fill="#1e2533"/>
<rect x="575" y="236" width="10" height="10" rx="2" fill="#1a4880"/>
<rect x="587" y="164" width="10" height="10" rx="2" fill="#1a4880"/>
<rect x="587" y="176" width="10" height="10" rx="2" fill="#1e2533"/>
<rect x="587" y="188" width="10" height="10" rx="2" fill="#1a4880"/>
<rect x="587" y="200" width="10" height="10" rx="2" fill="#1e2533"/>
<rect x="587" y="212" width="10" height="10" rx="2" fill="#1A6FC4"/>
<rect x="587" y="224" width="10" height="10" rx="2" fill="#1e2533"/>
<rect x="587" y="236" width="10" height="10" rx="2" fill="#1A6FC4"/>
<rect x="599" y="164" width="10" height="10" rx="2" fill="#1A6FC4"/>
<rect x="599" y="176" width="10" height="10" rx="2" fill="#1e2533"/>
<rect x="599" y="188" width="10" height="10" rx="2" fill="#1A6FC4"/>
<rect x="599" y="200" width="10" height="10" rx="2" fill="#1e2533"/>
<rect x="599" y="212" width="10" height="10" rx="2" fill="#00d4aa"/>
<rect x="599" y="224" width="10" height="10" rx="2" fill="#1a2d4a"/>
<rect x="599" y="236" width="10" height="10" rx="2" fill="#00d4aa"/>
<rect x="611" y="164" width="10" height="10" rx="2" fill="#1A6FC4"/>
<rect x="611" y="176" width="10" height="10" rx="2" fill="#1a2d4a"/>
<rect x="611" y="188" width="10" height="10" rx="2" fill="#00d4aa"/>
<rect x="611" y="200" width="10" height="10" rx="2" fill="#1a2d4a"/>
<rect x="611" y="212" width="10" height="10" rx="2" fill="#1e2533"/>
<rect x="611" y="224" width="10" height="10" rx="2" fill="#1a2d4a"/>
<rect x="611" y="236" width="10" height="10" rx="2" fill="#1e2533"/>
<rect x="623" y="164" width="10" height="10" rx="2" fill="#00d4aa"/>
<rect x="623" y="176" width="10" height="10" rx="2" fill="#1a2d4a"/>
<rect x="623" y="188" width="10" height="10" rx="2" fill="#1e2533"/>
<rect x="623" y="200" width="10" height="10" rx="2" fill="#1a2d4a"/>
<rect x="623" y="212" width="10" height="10" rx="2" fill="#1e2533"/>
<rect x="623" y="224" width="10" height="10" rx="2" fill="#1a4880"/>
<rect x="623" y="236" width="10" height="10" rx="2" fill="#1e2533"/>
<rect x="635" y="164" width="10" height="10" rx="2" fill="#1e2533"/>
<rect x="635" y="176" width="10" height="10" rx="2" fill="#1a2d4a"/>
<rect x="635" y="188" width="10" height="10" rx="2" fill="#1e2533"/>
<rect x="635" y="200" width="10" height="10" rx="2" fill="#1a4880"/>
<rect x="635" y="212" width="10" height="10" rx="2" fill="#1e2533"/>
<rect x="635" y="224" width="10" height="10" rx="2" fill="#1A6FC4"/>
<rect x="635" y="236" width="10" height="10" rx="2" fill="#1e2533"/>
<rect x="647" y="164" width="10" height="10" rx="2" fill="#1e2533"/>
<rect x="647" y="176" width="10" height="10" rx="2" fill="#1A6FC4"/>
<rect x="647" y="188" width="10" height="10" rx="2" fill="#1e2533"/>
<rect x="647" y="200" width="10" height="10" rx="2" fill="#1A6FC4"/>
<rect x="647" y="212" width="10" height="10" rx="2" fill="#1a2d4a"/>
<rect x="647" y="224" width="10" height="10" rx="2" fill="#00d4aa"/>
<rect x="647" y="236" width="10" height="10" rx="2" fill="#1a4880"/>
<rect x="659" y="164" width="10" height="10" rx="2" fill="#1e2533"/>
<rect x="659" y="176" width="10" height="10" rx="2" fill="#1A6FC4"/>
<rect x="659" y="188" width="10" height="10" rx="2" fill="#1a2d4a"/>
<rect x="659" y="200" width="10" height="10" rx="2" fill="#00d4aa"/>
<rect x="659" y="212" width="10" height="10" rx="2" fill="#1a2d4a"/>
<rect x="659" y="224" width="10" height="10" rx="2" fill="#1e2533"/>
<rect x="659" y="236" width="10" height="10" rx="2" fill="#1a4880"/>
<rect x="671" y="164" width="10" height="10" rx="2" fill="#1e2533"/>
<rect x="671" y="176" width="10" height="10" rx="2" fill="#1A6FC4"/>
<rect x="671" y="188" width="10" height="10" rx="2" fill="#1a2d4a"/>
<rect x="671" y="200" width="10" height="10" rx="2" fill="#00d4aa"/>
<rect x="671" y="212" width="10" height="10" rx="2" fill="#1a4880"/>
<rect x="671" y="224" width="10" height="10" rx="2" fill="#1e2533"/>
<rect x="671" y="236" width="10" height="10" rx="2" fill="#1A6FC4"/>
<rect x="683" y="164" width="10" height="10" rx="2" fill="#1a2d4a"/>
<rect x="683" y="176" width="10" height="10" rx="2" fill="#00d4aa"/>
<rect x="683" y="188" width="10" height="10" rx="2" fill="#1a4880"/>
<rect x="683" y="200" width="10" height="10" rx="2" fill="#1e2533"/>
<rect x="683" y="212" width="10" height="10" rx="2" fill="#1A6FC4"/>
<rect x="683" y="224" width="10" height="10" rx="2" fill="#1a2d4a"/>
<rect x="683" y="236" width="10" height="10" rx="2" fill="#00d4aa"/>
<rect x="695" y="164" width="10" height="10" rx="2" fill="#1a2d4a"/>
<rect x="695" y="176" width="10" height="10" rx="2" fill="#00d4aa"/>
<rect x="695" y="188" width="10" height="10" rx="2" fill="#1a4880"/>
<rect x="695" y="200" width="10" height="10" rx="2" fill="#1e2533"/>
<rect x="695" y="212" width="10" height="10" rx="2" fill="#1A6FC4"/>
<rect x="695" y="224" width="10" height="10" rx="2" fill="#1a2d4a"/>
<rect x="695" y="236" width="10" height="10" rx="2" fill="#1e2533"/>
<rect x="707" y="164" width="10" height="10" rx="2" fill="#1a2d4a"/>
<rect x="707" y="176" width="10" height="10" rx="2" fill="#1e2533"/>
<rect x="707" y="188" width="10" height="10" rx="2" fill="#1A6FC4"/>
<rect x="707" y="200" width="10" height="10" rx="2" fill="#1a2d4a"/>
<rect x="707" y="212" width="10" height="10" rx="2" fill="#00d4aa"/>
<rect x="707" y="224" width="10" height="10" rx="2" fill="#1a4880"/>
<rect x="707" y="236" width="10" height="10" rx="2" fill="#1e2533"/>
<rect x="719" y="164" width="10" height="10" rx="2" fill="#1A6FC4"/>
<rect x="719" y="176" width="10" height="10" rx="2" fill="#1e2533"/>
<rect x="719" y="188" width="10" height="10" rx="2" fill="#00d4aa"/>
<rect x="719" y="200" width="10" height="10" rx="2" fill="#1a4880"/>
<rect x="719" y="212" width="10" height="10" rx="2" fill="#1e2533"/>
<rect x="719" y="224" width="10" height="10" rx="2" fill="#1A6FC4"/>
<rect x="719" y="236" width="10" height="10" rx="2" fill="#1a2d4a"/>
<rect x="731" y="164" width="10" height="10" rx="2" fill="#1A6FC4"/>
<rect x="731" y="176" width="10" height="10" rx="2" fill="#1a2d4a"/>
<rect x="731" y="188" width="10" height="10" rx="2" fill="#00d4aa"/>
<rect x="731" y="200" width="10" height="10" rx="2" fill="#1a4880"/>
<rect x="731" y="212" width="10" height="10" rx="2" fill="#1e2533"/>
<rect x="731" y="224" width="10" height="10" rx="2" fill="#00d4aa"/>
<rect x="731" y="236" width="10" height="10" rx="2" fill="#1a4880"/>
<text x="720" y="258" font-family="monospace" font-size="8" fill="#5a6478">less</text>
<rect x="744" y="250" width="10" height="10" rx="2" fill="#1e2533"/>
<rect x="758" y="250" width="10" height="10" rx="2" fill="#1a2d4a"/>
<rect x="772" y="250" width="10" height="10" rx="2" fill="#1a4880"/>
<rect x="786" y="250" width="10" height="10" rx="2" fill="#1A6FC4"/>
<rect x="800" y="250" width="10" height="10" rx="2" fill="#00d4aa"/>
<text x="814" y="258" font-family="monospace" font-size="8" fill="#5a6478">more</text>
<rect x="28" y="278" width="395" height="244" rx="8" fill="#111620" stroke="#1e2533" stroke-width="0.8"/>
<text x="42" y="292" font-family="monospace" font-size="9" fill="#5a6478" letter-spacing="1">MVP Delivery — Area Progress</text>
<text x="42" y="314" font-family="monospace" font-size="10" fill="#c8d0e0">Core API  /evaluate</text>
<text x="409" y="314" font-family="monospace" font-size="9" fill="#5a6478" text-anchor="end">100%</text>
<rect x="42" y="318" width="367" height="5" rx="3" fill="#1e2533"/>
<rect x="42" y="318" width="367"
            height="5" rx="3" fill="#1A6FC4">
          <animate attributeName="width" from="0" to="367"
                   dur="1.2s" fill="freeze" calcMode="spline"
                   keySplines="0.22 1 0.36 1"/>
        </rect>
<text x="42" y="344" font-family="monospace" font-size="10" fill="#c8d0e0">Docker / Deployment</text>
<text x="409" y="344" font-family="monospace" font-size="9" fill="#5a6478" text-anchor="end">50%</text>
<rect x="42" y="348" width="367" height="5" rx="3" fill="#1e2533"/>
<rect x="42" y="348" width="183"
            height="5" rx="3" fill="#00d4aa">
          <animate attributeName="width" from="0" to="183"
                   dur="1.2s" fill="freeze" calcMode="spline"
                   keySplines="0.22 1 0.36 1"/>
        </rect>
<text x="42" y="374" font-family="monospace" font-size="10" fill="#c8d0e0">Logging &amp; Audit</text>
<text x="409" y="374" font-family="monospace" font-size="9" fill="#5a6478" text-anchor="end">70%</text>
<rect x="42" y="378" width="367" height="5" rx="3" fill="#1e2533"/>
<rect x="42" y="378" width="256"
            height="5" rx="3" fill="#f0a500">
          <animate attributeName="width" from="0" to="256"
                   dur="1.2s" fill="freeze" calcMode="spline"
                   keySplines="0.22 1 0.36 1"/>
        </rect>
<text x="42" y="404" font-family="monospace" font-size="10" fill="#c8d0e0">Sandbox / Testing</text>
<text x="409" y="404" font-family="monospace" font-size="9" fill="#5a6478" text-anchor="end">0%</text>
<rect x="42" y="408" width="367" height="5" rx="3" fill="#1e2533"/>
<rect x="42" y="408" width="2"
            height="5" rx="3" fill="#5a6478">
          <animate attributeName="width" from="0" to="2"
                   dur="1.2s" fill="freeze" calcMode="spline"
                   keySplines="0.22 1 0.36 1"/>
        </rect>
<text x="42" y="434" font-family="monospace" font-size="10" fill="#c8d0e0">GitHub Repos</text>
<text x="409" y="434" font-family="monospace" font-size="9" fill="#5a6478" text-anchor="end">90%</text>
<rect x="42" y="438" width="367" height="5" rx="3" fill="#1e2533"/>
<rect x="42" y="438" width="330"
            height="5" rx="3" fill="#5a6478">
          <animate attributeName="width" from="0" to="330"
                   dur="1.2s" fill="freeze" calcMode="spline"
                   keySplines="0.22 1 0.36 1"/>
        </rect>
<text x="42" y="464" font-family="monospace" font-size="10" fill="#c8d0e0">Team &amp; People</text>
<text x="409" y="464" font-family="monospace" font-size="9" fill="#5a6478" text-anchor="end">0%</text>
<rect x="42" y="468" width="367" height="5" rx="3" fill="#1e2533"/>
<rect x="42" y="468" width="2"
            height="5" rx="3" fill="#5a6478">
          <animate attributeName="width" from="0" to="2"
                   dur="1.2s" fill="freeze" calcMode="spline"
                   keySplines="0.22 1 0.36 1"/>
        </rect>
<text x="42" y="494" font-family="monospace" font-size="10" fill="#c8d0e0">Docs Pre-Release</text>
<text x="409" y="494" font-family="monospace" font-size="9" fill="#5a6478" text-anchor="end">0%</text>
<rect x="42" y="498" width="367" height="5" rx="3" fill="#1e2533"/>
<rect x="42" y="498" width="2"
            height="5" rx="3" fill="#5a6478">
          <animate attributeName="width" from="0" to="2"
                   dur="1.2s" fill="freeze" calcMode="spline"
                   keySplines="0.22 1 0.36 1"/>
        </rect>
<rect x="437" y="278" width="395" height="120" rx="8" fill="#111620" stroke="#1e2533" stroke-width="0.8"/>
<text x="451" y="292" font-family="monospace" font-size="9" fill="#5a6478" letter-spacing="1">Sprint Velocity — Tasks Closed</text>
<rect x="451" y="347" width="41"
            height="21" rx="3" fill="#1A6FC4" opacity="0.85">
          <animate attributeName="height" from="0" to="21"
                   dur="0.8s" begin="0.00s" fill="freeze"
                   calcMode="spline" keySplines="0.22 1 0.36 1"/>
          <animate attributeName="y" from="368" to="347"
                   dur="0.8s" begin="0.00s" fill="freeze"
                   calcMode="spline" keySplines="0.22 1 0.36 1"/>
        </rect>
<text x="471" y="382" font-family="monospace" font-size="8" fill="#5a6478" text-anchor="middle">W-8</text>
<rect x="496" y="340" width="41"
            height="28" rx="3" fill="#1A6FC4" opacity="0.85">
          <animate attributeName="height" from="0" to="28"
                   dur="0.8s" begin="0.07s" fill="freeze"
                   calcMode="spline" keySplines="0.22 1 0.36 1"/>
          <animate attributeName="y" from="368" to="340"
                   dur="0.8s" begin="0.07s" fill="freeze"
                   calcMode="spline" keySplines="0.22 1 0.36 1"/>
        </rect>
<text x="516" y="382" font-family="monospace" font-size="8" fill="#5a6478" text-anchor="middle">W-7</text>
<rect x="541" y="354" width="41"
            height="14" rx="3" fill="#1A6FC4" opacity="0.85">
          <animate attributeName="height" from="0" to="14"
                   dur="0.8s" begin="0.14s" fill="freeze"
                   calcMode="spline" keySplines="0.22 1 0.36 1"/>
          <animate attributeName="y" from="368" to="354"
                   dur="0.8s" begin="0.14s" fill="freeze"
                   calcMode="spline" keySplines="0.22 1 0.36 1"/>
        </rect>
<text x="561" y="382" font-family="monospace" font-size="8" fill="#5a6478" text-anchor="middle">W-6</text>
<rect x="586" y="333" width="41"
            height="35" rx="3" fill="#1A6FC4" opacity="0.85">
          <animate attributeName="height" from="0" to="35"
                   dur="0.8s" begin="0.21s" fill="freeze"
                   calcMode="spline" keySplines="0.22 1 0.36 1"/>
          <animate attributeName="y" from="368" to="333"
                   dur="0.8s" begin="0.21s" fill="freeze"
                   calcMode="spline" keySplines="0.22 1 0.36 1"/>
        </rect>
<text x="606" y="382" font-family="monospace" font-size="8" fill="#5a6478" text-anchor="middle">W-5</text>
<rect x="631" y="326" width="41"
            height="42" rx="3" fill="#1A6FC4" opacity="0.85">
          <animate attributeName="height" from="0" to="42"
                   dur="0.8s" begin="0.28s" fill="freeze"
                   calcMode="spline" keySplines="0.22 1 0.36 1"/>
          <animate attributeName="y" from="368" to="326"
                   dur="0.8s" begin="0.28s" fill="freeze"
                   calcMode="spline" keySplines="0.22 1 0.36 1"/>
        </rect>
<text x="651" y="382" font-family="monospace" font-size="8" fill="#5a6478" text-anchor="middle">W-4</text>
<rect x="676" y="340" width="41"
            height="28" rx="3" fill="#1A6FC4" opacity="0.85">
          <animate attributeName="height" from="0" to="28"
                   dur="0.8s" begin="0.35s" fill="freeze"
                   calcMode="spline" keySplines="0.22 1 0.36 1"/>
          <animate attributeName="y" from="368" to="340"
                   dur="0.8s" begin="0.35s" fill="freeze"
                   calcMode="spline" keySplines="0.22 1 0.36 1"/>
        </rect>
<text x="696" y="382" font-family="monospace" font-size="8" fill="#5a6478" text-anchor="middle">W-3</text>
<rect x="721" y="319" width="41"
            height="49" rx="3" fill="#00d4aa" opacity="0.85">
          <animate attributeName="height" from="0" to="49"
                   dur="0.8s" begin="0.42s" fill="freeze"
                   calcMode="spline" keySplines="0.22 1 0.36 1"/>
          <animate attributeName="y" from="368" to="319"
                   dur="0.8s" begin="0.42s" fill="freeze"
                   calcMode="spline" keySplines="0.22 1 0.36 1"/>
        </rect>
<text x="741" y="382" font-family="monospace" font-size="8" fill="#5a6478" text-anchor="middle">W-2</text>
<rect x="766" y="304" width="41"
            height="64" rx="3" fill="#00d4aa" opacity="0.85">
          <animate attributeName="height" from="0" to="64"
                   dur="0.8s" begin="0.49s" fill="freeze"
                   calcMode="spline" keySplines="0.22 1 0.36 1"/>
          <animate attributeName="y" from="368" to="304"
                   dur="0.8s" begin="0.49s" fill="freeze"
                   calcMode="spline" keySplines="0.22 1 0.36 1"/>
        </rect>
<text x="786" y="382" font-family="monospace" font-size="8" fill="#5a6478" text-anchor="middle">W-1</text>
<rect x="28" y="536" width="395" height="186" rx="8" fill="#111620" stroke="#1e2533" stroke-width="0.8"/>
<text x="42" y="550" font-family="monospace" font-size="9" fill="#5a6478" letter-spacing="1">Repository Status</text>
<circle cx="50" cy="570" r="4" fill="#00d4aa"/>
<circle cx="50" cy="570" r="4" fill="#00d4aa" opacity="0.4">
              <animate attributeName="r" values="4;8;4" dur="2.5s" repeatCount="indefinite"/>
              <animate attributeName="opacity" values="0.4;0;0.4" dur="2.5s" repeatCount="indefinite"/>
            </circle>
<text x="60" y="574" font-family="monospace" font-size="10" fill="#c8d0e0">syzygy-rosetta-originbase</text>
<text x="409" y="574" font-family="monospace" font-size="8" fill="#00d4aa" text-anchor="end" letter-spacing="0.4">ACTIVE</text>
<circle cx="50" cy="596" r="4" fill="#00d4aa"/>
<circle cx="50" cy="596" r="4" fill="#00d4aa" opacity="0.4">
              <animate attributeName="r" values="4;8;4" dur="2.5s" repeatCount="indefinite"/>
              <animate attributeName="opacity" values="0.4;0;0.4" dur="2.5s" repeatCount="indefinite"/>
            </circle>
<text x="60" y="600" font-family="monospace" font-size="10" fill="#c8d0e0">syzygy-rosetta-docs</text>
<text x="409" y="600" font-family="monospace" font-size="8" fill="#00d4aa" text-anchor="end" letter-spacing="0.4">ACTIVE</text>
<circle cx="50" cy="622" r="4" fill="#00d4aa"/>
<circle cx="50" cy="622" r="4" fill="#00d4aa" opacity="0.4">
              <animate attributeName="r" values="4;8;4" dur="2.5s" repeatCount="indefinite"/>
              <animate attributeName="opacity" values="0.4;0;0.4" dur="2.5s" repeatCount="indefinite"/>
            </circle>
<text x="60" y="626" font-family="monospace" font-size="10" fill="#c8d0e0">TrivianTech-website</text>
<text x="409" y="626" font-family="monospace" font-size="8" fill="#00d4aa" text-anchor="end" letter-spacing="0.4">ACTIVE</text>
<circle cx="50" cy="648" r="4" fill="#5a6478"/>
<text x="60" y="652" font-family="monospace" font-size="10" fill="#c8d0e0">syzygy-rosetta-sandbox</text>
<text x="409" y="652" font-family="monospace" font-size="8" fill="#5a6478" text-anchor="end" letter-spacing="0.4">PLANNED</text>
<circle cx="50" cy="674" r="4" fill="#5a6478"/>
<text x="60" y="678" font-family="monospace" font-size="10" fill="#c8d0e0">syzygy-rosetta-sdk</text>
<text x="409" y="678" font-family="monospace" font-size="8" fill="#5a6478" text-anchor="end" letter-spacing="0.4">PLANNED</text>
<circle cx="50" cy="700" r="4" fill="#5a6478"/>
<text x="60" y="704" font-family="monospace" font-size="10" fill="#c8d0e0">Trivian-Infrastructure</text>
<text x="409" y="704" font-family="monospace" font-size="8" fill="#5a6478" text-anchor="end" letter-spacing="0.4">PLANNED</text>
<rect x="437" y="536" width="395" height="212" rx="8" fill="#111620" stroke="#1e2533" stroke-width="0.8"/>
<text x="451" y="550" font-family="monospace" font-size="9" fill="#5a6478" letter-spacing="1">Tech Stack</text>
<rect x="451" y="558" width="84.2" height="16" rx="3" fill="none" stroke="#1A6FC4" stroke-width="0.8" opacity="0.7"/>
<text x="493.1" y="568" font-family="monospace" font-size="8.5" fill="#1A6FC4" text-anchor="middle">Python 3.11</text>
<rect x="543.2" y="558" width="59.4" height="16" rx="3" fill="none" stroke="#1A6FC4" stroke-width="0.8" opacity="0.7"/>
<text x="572.9000000000001" y="568" font-family="monospace" font-size="8.5" fill="#1A6FC4" text-anchor="middle">FastAPI</text>
<rect x="451" y="580" width="53.2" height="16" rx="3" fill="none" stroke="#1A6FC4" stroke-width="0.8" opacity="0.7"/>
<text x="477.6" y="590" font-family="monospace" font-size="8.5" fill="#1A6FC4" text-anchor="middle">Docker</text>
<rect x="512.2" y="580" width="59.4" height="16" rx="3" fill="none" stroke="#1A6FC4" stroke-width="0.8" opacity="0.7"/>
<text x="541.9000000000001" y="590" font-family="monospace" font-size="8.5" fill="#1A6FC4" text-anchor="middle">Uvicorn</text>
<rect x="451" y="602" width="59.4" height="16" rx="3" fill="none" stroke="#00d4aa" stroke-width="0.8" opacity="0.7"/>
<text x="480.7" y="612" font-family="monospace" font-size="8.5" fill="#00d4aa" text-anchor="middle">Risk ML</text>
<rect x="518.4" y="602" width="96.60000000000001" height="16" rx="3" fill="none" stroke="#00d4aa" stroke-width="0.8" opacity="0.7"/>
<text x="566.6999999999999" y="612" font-family="monospace" font-size="8.5" fill="#00d4aa" text-anchor="middle">Policy Engine</text>
<line x1="447" y1="628" x2="822" y2="628" stroke="#1e2533" stroke-width="0.5"/>
<text x="451" y="648" font-family="monospace" font-size="9" fill="#5a6478" letter-spacing="1">Open Blockers</text>
<circle cx="457" cy="663" r="3" fill="#e2494a"/>
<text x="467" y="667" font-family="monospace" font-size="9" fill="#5a6478">Meili Liang:</text>
<text x="539" y="667" font-family="monospace" font-size="9" fill="#c8d0e0">Multi-agent sandbox testing</text>
<circle cx="457" cy="685" r="3" fill="#e2494a"/>
<text x="467" y="689" font-family="monospace" font-size="9" fill="#5a6478">Chengquian Lou Noah:</text>
<text x="587" y="689" font-family="monospace" font-size="9" fill="#c8d0e0">docker deployment + cloud provider sandbox deployment + sandbox testing</text>
<circle cx="457" cy="707" r="3" fill="#f0a500"/>
<text x="467" y="711" font-family="monospace" font-size="9" fill="#5a6478">∆OT:</text>
<text x="491" y="711" font-family="monospace" font-size="9" fill="#c8d0e0">GitBook + all 7 repo READMEs</text>
<circle cx="457" cy="729" r="3" fill="#1A6FC4"/>
<text x="467" y="733" font-family="monospace" font-size="9" fill="#5a6478">OluwaToba Adenji:</text>
<text x="569" y="733" font-family="monospace" font-size="9" fill="#c8d0e0">WordPress source extraction</text>
<line x1="28" y1="763" x2="832" y2="763" stroke="#1e2533" stroke-width="0.5"/>
<clipPath id="ticker-clip"><rect x="28" y="766" width="804" height="16"/></clipPath>
<text font-family="monospace" font-size="9" fill="#5a6478" y="777" clip-path="url(#ticker-clip)"><tspan>POST /evaluate — endpoint validated   ·   Docker build — clean clone confirmed   ·   reflex.py — repository audit #1 &amp; #2 completed   ·   MVP deadline — March 28   ·   GitBook docs — in progress   ·   Risk scoring — ML engine active/LLMScorer API activation pending   ·   Policy engine — healthcare ruleset   ·   Audit log — 8-field schema completed   ·   Sandbox — case study pending   ·   SDKs — Python + JS · planned   ·   POST /evaluate — endpoint validated   ·   Docker build — clean clone confirmed   ·   reflex.py — repository audit #1 &amp; #2 completed   ·   MVP deadline — March 28   ·   GitBook docs — in progress   ·   Risk scoring — ML engine active/LLMScorer API activation pending   ·   Policy engine — healthcare ruleset   ·   Audit log — 8-field schema completed   ·   Sandbox — case study pending   ·   SDKs — Python + JS · planned</tspan><animateTransform attributeName="transform" type="translate" from="28,0" to="-2845,0" dur="28s" repeatCount="indefinite"/></text>
</svg>